<svg version="1.2" xmlns="http://www.w3.org/2000/svg" viewBox="0 0 20 18" width="20" height="18">
	<title>sun-svg</title>
	<style>
		.s0 { fill: #ffd057 } 
	</style>
	<g id="Layer">
		<path id="Layer" class="s0" d="m4.6 4.7l-1.5-1.5 1.1-1.1 1.5 1.4zm-1.1 5.2h-2.4v-1.7h2.4zm7.4-7.4h-1.7v-2.4h1.7zm4.6 2.3l-1.1-1.2 1.4-1.5 1.2 1.2zm0 8.6l1.4 1.5-1.1 1.2-1.5-1.5zm3.6-5.2v1.7h-2.5v-1.7zm-4.1 0.9c0 2.7-2.2 4.9-4.9 4.9-2.7 0-4.9-2.2-4.9-4.9 0-2.8 2.2-5 4.9-5 2.7 0 4.9 2.2 4.9 5zm-5.7 6.5h1.6v2.5h-1.6zm-4.6-2.3l1.1 1.1-1.4 1.5-1.2-1.1z"/>
	</g>
</svg>